<svg xmlns="http://www.w3.org/2000/svg" width="42.609" height="42.61" viewBox="0 0 42.609 42.61">
  <g id="instagram-logo" transform="translate(0)">
    <g id="Grupo_11" data-name="Grupo 11">
      <g id="Grupo_10" data-name="Grupo 10">
        <path id="Caminho_33" data-name="Caminho 33" d="M24.12,28.386a4.258,4.258,0,1,0-4.263-4.266A4.272,4.272,0,0,0,24.12,28.386Z" transform="translate(-2.816 -2.816)" fill="#fff"/>
        <path id="Caminho_34" data-name="Caminho 34" d="M35,18.067V13.96l-.535,0-3.573.011.014,4.108Z" transform="translate(-4.381 -1.98)" fill="#fff"/>
        <path id="Caminho_35" data-name="Caminho 35" d="M21.3,0a21.3,21.3,0,1,0,21.3,21.3A21.329,21.329,0,0,0,21.3,0ZM33.421,18.819v9.92a4.688,4.688,0,0,1-4.683,4.684H13.871a4.687,4.687,0,0,1-4.683-4.684V13.872a4.687,4.687,0,0,1,4.683-4.683H28.737a4.688,4.688,0,0,1,4.684,4.683Z" fill="#fff"/>
        <path id="Caminho_36" data-name="Caminho 36" d="M29.841,24.415a6.627,6.627,0,1,1-12.767-2.486H13.457v9.92a2.322,2.322,0,0,0,2.322,2.32H30.645a2.323,2.323,0,0,0,2.322-2.32v-9.92H29.349A6.537,6.537,0,0,1,29.841,24.415Z" transform="translate(-1.909 -3.11)" fill="#fff"/>
      </g>
    </g>
  </g>
</svg>
