<svg xmlns="http://www.w3.org/2000/svg" width="42.609" height="42.61" viewBox="0 0 42.609 42.61">
  <g id="twitter-logo-button" transform="translate(0)">
    <g id="Grupo_12" data-name="Grupo 12">
      <path id="Caminho_37" data-name="Caminho 37" d="M21.3,0a21.3,21.3,0,1,0,21.3,21.3A21.329,21.329,0,0,0,21.3,0Zm9.5,16.429c.009.211.015.424.015.637A13.949,13.949,0,0,1,9.354,28.814a9.9,9.9,0,0,0,7.26-2.03,4.908,4.908,0,0,1-4.581-3.406,4.923,4.923,0,0,0,2.214-.082,4.9,4.9,0,0,1-3.933-4.808c0-.021,0-.042,0-.062a4.884,4.884,0,0,0,2.22.613,4.911,4.911,0,0,1-1.517-6.547,13.924,13.924,0,0,0,10.107,5.125,4.907,4.907,0,0,1,8.356-4.474,9.788,9.788,0,0,0,3.115-1.19,4.926,4.926,0,0,1-2.159,2.714,9.749,9.749,0,0,0,2.817-.771A9.864,9.864,0,0,1,30.809,16.429Z" fill="#fff"/>
    </g>
  </g>
</svg>
