<svg xmlns="http://www.w3.org/2000/svg" width="42.609" height="42.61" viewBox="0 0 42.609 42.61">
  <g id="whatsapp" transform="translate(0 0)">
    <path id="Subtração_3" data-name="Subtração 3" d="M21.309,42.61a21.152,21.152,0,0,1-11.72-3.52L1.4,41.707l2.654-7.916A21.074,21.074,0,0,1,0,21.306,21.326,21.326,0,0,1,21.3,0h.011a21.3,21.3,0,0,1,0,42.61ZM13.283,9.744a3.1,3.1,0,0,0-2.178.764l-.054.055a6.811,6.811,0,0,0-2.123,5.13c0,2.584,1.565,5.108,2.5,6.383l.031.042c.024.031.068.1.133.189,3.02,4.372,6.74,7.633,10.475,9.18a18.158,18.158,0,0,0,6.24,1.745,5.512,5.512,0,0,0,1.221-.142c1.659-.358,3.676-1.58,4.181-3.005a5.336,5.336,0,0,0,.366-2.956c-.121-.21-.4-.346-.831-.552-.111-.053-.23-.111-.359-.176-.036-.018-3.613-1.8-4.246-2.016a1.54,1.54,0,0,0-.54-.108,1.189,1.189,0,0,0-.988.572l-.225.316a21.028,21.028,0,0,1-1.44,1.889,1.2,1.2,0,0,1-.89.36,1.609,1.609,0,0,1-.61-.124l-.188-.077a15.659,15.659,0,0,1-4.809-3.005,18.845,18.845,0,0,1-3.457-4.3.983.983,0,0,1,.234-1.306l.017-.02c.18-.222.359-.412.531-.6.129-.137.262-.279.395-.433l.058-.067a3.439,3.439,0,0,0,.633-.91,1.267,1.267,0,0,0-.091-1.153c-.1-.216-.727-1.73-1.278-3.065-.247-.6-.478-1.16-.638-1.545C14.944,9.849,14.642,9.8,14,9.768h-.023C13.77,9.756,13.537,9.744,13.283,9.744Z" transform="translate(0 0)" fill="#fff"/>
  </g>
</svg>
